<?xml version="1.0" encoding="UTF-8" standalone="no"?>
<!DOCTYPE svg PUBLIC "-//W3C//DTD SVG 1.1//EN" "http://www.w3.org/Graphics/SVG/1.1/DTD/svg11.dtd">
<svg width="100%" height="100%" viewBox="0 0 7957 1861" version="1.1" xmlns="http://www.w3.org/2000/svg" xmlns:xlink="http://www.w3.org/1999/xlink" xml:space="preserve" xmlns:serif="http://www.serif.com/" style="fill-rule:evenodd;clip-rule:evenodd;stroke-linejoin:round;stroke-miterlimit:2;">
    <g id="Group">
        <g id="Path" transform="matrix(1,0,0,1,-266,0)">
            <path d="M273.556,1668.99L335.09,1668.99L335.09,417.81C335.09,372.685 326.885,343.97 312.527,333.714C328.936,337.816 347.396,350.123 363.805,387.043L921.708,1668.98L977.088,1668.98L1506.28,356.273L1506.28,1668.98L1772.92,1668.98L1772.92,233.203L1500.12,233.203L1050.93,1346.95L562.763,233.203L273.556,233.203L273.556,1668.99Z" style="fill-rule:nonzero;"/>
        </g>
        <g id="path1" transform="matrix(1,0,0,1,-266,0)">
            <path d="M2466.4,1710.01C2704.33,1710.01 2849.96,1513.1 2911.49,1387.99L2893.03,1373.63C2841.75,1476.18 2718.69,1578.74 2562.8,1578.74C2347.43,1578.74 2201.81,1420.8 2195.65,1143.9L2944.31,1143.9C2944.31,764.447 2698.18,602.409 2458.2,602.409C2212.06,602.409 1937.21,772.651 1937.21,1152.11C1937.21,1539.77 2218.22,1710.01 2466.4,1710.01ZM2195.65,1102.88C2199.76,803.418 2300.26,643.431 2458.2,643.431C2599.72,643.431 2692.02,766.498 2700.23,1102.88L2195.65,1102.88Z" style="fill-rule:nonzero;"/>
        </g>
        <g id="path2" transform="matrix(1,0,0,1,-266,0)">
            <path d="M3110.66,944.946L3110.66,1668.99L3356.79,1668.99L3356.79,1127.5C3356.79,789.061 3529.09,643.432 3631.64,643.432C3709.59,643.432 3732.15,719.323 3732.15,889.566L3732.15,1668.99L3978.28,1668.99L3978.28,901.872C3978.28,690.608 3898.29,602.41 3684.97,602.41C3551.65,602.41 3434.74,661.892 3356.79,772.652L3356.79,643.432L3006.05,643.432L3006.05,661.892C3075.79,661.892 3110.66,748.039 3110.66,944.946Z" style="fill-rule:nonzero;"/>
        </g>
        <g id="path3" transform="matrix(1,0,0,1,-266,0)">
            <path d="M4409.21,1710.01C4534.33,1710.01 4612.27,1597.2 4671.75,1525.41L4663.55,1509C4624.58,1550.02 4589.71,1582.84 4544.58,1582.84C4478.95,1580.79 4446.13,1521.31 4446.13,1420.8L4446.13,684.453L4657.4,684.453L4657.4,643.431L4446.13,643.431L4446.13,335.764L4423.57,335.764C4423.57,438.32 4304.6,643.431 4200,643.431L4132.31,643.431L4132.31,684.453L4200,684.453L4200,1424.9C4200,1588.99 4263.58,1710.01 4409.21,1710.01Z" style="fill-rule:nonzero;"/>
        </g>
        <g id="path4" transform="matrix(1,0,0,1,-266,0)">
            <path d="M4827.85,944.942L4827.85,1668.99L5073.98,1668.99L5073.98,643.428L4723.24,643.428L4723.24,661.888C4792.98,661.888 4827.85,748.035 4827.85,944.942ZM4815.54,302.947C4815.54,366.532 4866.82,417.81 4930.41,417.81C4993.99,417.81 5045.27,366.532 5045.27,302.947C5045.27,239.363 4993.99,188.085 4930.41,188.085C4866.82,188.085 4815.54,239.363 4815.54,302.947Z" style="fill-rule:nonzero;"/>
        </g>
        <g id="path5" transform="matrix(1,0,0,1,-266,0)">
            <path d="M5547.99,1668.99L5794.12,1668.99L6126.4,643.43L5857.71,643.43C5933.6,768.548 5991.03,951.097 5952.06,1070.06L5771.56,1605.4L5595.17,1102.88C5474.15,762.395 5437.23,659.839 5589.01,659.839L5589.01,643.43L5186.99,643.43L5547.99,1668.99Z" style="fill-rule:nonzero;"/>
        </g>
        <g id="path6" transform="matrix(1,0,0,1,-266,0)">
            <path d="M6284.55,944.942L6284.55,1668.99L6530.68,1668.99L6530.68,643.428L6179.94,643.428L6179.94,661.888C6249.68,661.888 6284.55,748.035 6284.55,944.942ZM6272.24,302.947C6272.24,366.532 6323.52,417.81 6387.11,417.81C6450.69,417.81 6501.97,366.532 6501.97,302.947C6501.97,239.363 6450.69,188.085 6387.11,188.085C6323.52,188.085 6272.24,239.363 6272.24,302.947Z" style="fill-rule:nonzero;"/>
        </g>
        <g id="path7" transform="matrix(1,0,0,1,-266,0)">
            <path d="M7197.5,1710.01C7486.71,1710.01 7648.74,1595.15 7648.74,1373.63C7648.74,955.2 6900.09,1035.19 6900.09,784.958C6900.09,717.271 6998.54,643.431 7109.3,643.431C7326.72,643.431 7501.06,795.213 7587.21,934.689L7593.36,934.689L7593.36,702.913C7535.93,649.584 7353.38,602.409 7168.78,602.409C6830.35,602.409 6713.44,772.651 6713.44,914.178C6713.44,1242.36 7468.25,1207.49 7468.25,1502.85C7468.25,1582.84 7390.3,1668.99 7252.88,1668.99C6971.88,1668.99 6824.2,1484.39 6711.39,1314.14L6705.23,1314.14L6705.23,1609.51C6801.64,1660.78 7014.95,1710.01 7197.5,1710.01Z" style="fill-rule:nonzero;"/>
        </g>
    </g>
</svg>
